# xmcd
#
# Track frame offsets:
#	182
#	20807
#	38332
#	58457
#	73882
#	95882
#	113882
#	132207
#
# Disc length: 2069 seconds
#
# Revision: 0
# Processed by: cddbd v1.5.1PL0 Copyright (c) Steve Scherf et al.
# Submitted via: dBpowerAMP V4.0
#
DISCID=77081308
DTITLE=Dee Dee Bridgewater - Precious Thing
DYEAR=1900
DGENRE=Blues
TTITLE0=Heartache Caravan
TTITLE1=Wall Of Love
TTITLE2=Love Takes Chances
TTITLE3=I Go My Way
TTITLE4=Mr. Guitar Man
TTITLE5=Can't We Try Love Again
TTITLE6=Sunset and Blue
TTITLE7=Till The Next ... Somewhere
EXTD=
EXTT0=
EXTT1=
EXTT2=
EXTT3=
EXTT4=
EXTT5=
EXTT6=
EXTT7=
PLAYORDER=
